<?xml version="1.0" encoding="utf-8"?>
<!-- Svg Vector Icons : http://www.onlinewebfonts.com/icon -->
<!DOCTYPE svg PUBLIC "-//W3C//DTD SVG 1.1//EN" "http://www.w3.org/Graphics/SVG/1.1/DTD/svg11.dtd">
<svg version="1.1" xmlns="http://www.w3.org/2000/svg" xmlns:xlink="http://www.w3.org/1999/xlink" x="0px" y="0px" viewBox="0 0 256 256" enable-background="new 0 0 256 256" xml:space="preserve">
<metadata> Svg Vector Icons : http://www.onlinewebfonts.com/icon </metadata>
<g><g><path fill="#000000" d="M42.2,138.7c0-31.8,17.3-59.5,42.9-74.3v-24c-37.9,16.6-64.4,54.4-64.4,98.4C20.7,198,68.8,246,128,246c59.2,0,107.3-48,107.3-107.3c0-44-26.5-81.8-64.4-98.4v24c25.6,14.8,42.9,42.6,42.9,74.3c0,47.4-38.4,85.8-85.8,85.8C80.6,224.5,42.2,186.1,42.2,138.7z M128,10c-11.8,0-21.5,9.6-21.5,21.5v85.8c0,11.8,9.6,21.5,21.5,21.5s21.5-9.6,21.5-21.5V31.5C149.5,19.6,139.8,10,128,10z"/></g></g>
</svg>